<svg width="163" height="33" viewBox="0 0 163 33" fill="none" xmlns="http://www.w3.org/2000/svg">
<path d="M29.31 31V8.65H32.16L44.7 25.96L43.35 26.17V8.65H46.86V31H44.01L31.56 13.57L32.85 13.33V31H29.31ZM58.7777 31.36C57.1577 31.36 55.7177 30.99 54.4577 30.25C53.2177 29.49 52.2477 28.47 51.5477 27.19C50.8477 25.89 50.4977 24.44 50.4977 22.84C50.4977 21.2 50.8477 19.75 51.5477 18.49C52.2677 17.23 53.2277 16.24 54.4277 15.52C55.6277 14.78 56.9877 14.41 58.5077 14.41C59.7277 14.41 60.8177 14.62 61.7777 15.04C62.7377 15.46 63.5477 16.04 64.2077 16.78C64.8677 17.5 65.3677 18.33 65.7077 19.27C66.0677 20.21 66.2477 21.21 66.2477 22.27C66.2477 22.53 66.2377 22.8 66.2177 23.08C66.1977 23.36 66.1577 23.62 66.0977 23.86H53.1677V21.16H64.1777L62.5577 22.39C62.7577 21.41 62.6877 20.54 62.3477 19.78C62.0277 19 61.5277 18.39 60.8477 17.95C60.1877 17.49 59.4077 17.26 58.5077 17.26C57.6077 17.26 56.8077 17.49 56.1077 17.95C55.4077 18.39 54.8677 19.03 54.4877 19.87C54.1077 20.69 53.9577 21.69 54.0377 22.87C53.9377 23.97 54.0877 24.93 54.4877 25.75C54.9077 26.57 55.4877 27.21 56.2277 27.67C56.9877 28.13 57.8477 28.36 58.8077 28.36C59.7877 28.36 60.6177 28.14 61.2977 27.7C61.9977 27.26 62.5477 26.69 62.9477 25.99L65.7077 27.34C65.3877 28.1 64.8877 28.79 64.2077 29.41C63.5477 30.01 62.7477 30.49 61.8077 30.85C60.8877 31.19 59.8777 31.36 58.7777 31.36ZM76.5762 31.18C74.8762 31.18 73.5562 30.7 72.6162 29.74C71.6762 28.78 71.2062 27.43 71.2062 25.69V17.83H68.3562V14.77H68.8062C69.5662 14.77 70.1562 14.55 70.5762 14.11C70.9962 13.67 71.2062 13.07 71.2062 12.31V11.05H74.5962V14.77H78.2862V17.83H74.5962V25.54C74.5962 26.1 74.6862 26.58 74.8662 26.98C75.0462 27.36 75.3362 27.66 75.7362 27.88C76.1362 28.08 76.6562 28.18 77.2962 28.18C77.4562 28.18 77.6362 28.17 77.8362 28.15C78.0362 28.13 78.2262 28.11 78.4062 28.09V31C78.1262 31.04 77.8162 31.08 77.4762 31.12C77.1362 31.16 76.8362 31.18 76.5762 31.18ZM89.0414 31.36C87.4214 31.36 85.9814 30.99 84.7214 30.25C83.4814 29.49 82.5114 28.47 81.8114 27.19C81.1114 25.89 80.7614 24.44 80.7614 22.84C80.7614 21.2 81.1114 19.75 81.8114 18.49C82.5314 17.23 83.4914 16.24 84.6914 15.52C85.8914 14.78 87.2514 14.41 88.7714 14.41C89.9914 14.41 91.0814 14.62 92.0414 15.04C93.0014 15.46 93.8114 16.04 94.4714 16.78C95.1314 17.5 95.6314 18.33 95.9714 19.27C96.3314 20.21 96.5114 21.21 96.5114 22.27C96.5114 22.53 96.5014 22.8 96.4814 23.08C96.4614 23.36 96.4214 23.62 96.3614 23.86H83.4314V21.16H94.4414L92.8214 22.39C93.0214 21.41 92.9514 20.54 92.6114 19.78C92.2914 19 91.7914 18.39 91.1114 17.95C90.4514 17.49 89.6714 17.26 88.7714 17.26C87.8714 17.26 87.0714 17.49 86.3714 17.95C85.6714 18.39 85.1314 19.03 84.7514 19.87C84.3714 20.69 84.2214 21.69 84.3014 22.87C84.2014 23.97 84.3514 24.93 84.7514 25.75C85.1714 26.57 85.7514 27.21 86.4914 27.67C87.2514 28.13 88.1114 28.36 89.0714 28.36C90.0514 28.36 90.8814 28.14 91.5614 27.7C92.2614 27.26 92.8114 26.69 93.2114 25.99L95.9714 27.34C95.6514 28.1 95.1514 28.79 94.4714 29.41C93.8114 30.01 93.0114 30.49 92.0714 30.85C91.1514 31.19 90.1414 31.36 89.0414 31.36ZM99.8198 31V14.77H103.06V18.04L102.76 17.56C103.12 16.5 103.7 15.74 104.5 15.28C105.3 14.8 106.26 14.56 107.38 14.56H108.37V17.65H106.96C105.84 17.65 104.93 18 104.23 18.7C103.55 19.38 103.21 20.36 103.21 21.64V31H99.8198ZM115.549 31.36C114.449 31.36 113.479 31.17 112.639 30.79C111.819 30.39 111.179 29.85 110.719 29.17C110.259 28.47 110.029 27.65 110.029 26.71C110.029 25.83 110.219 25.04 110.599 24.34C110.999 23.64 111.609 23.05 112.429 22.57C113.249 22.09 114.279 21.75 115.519 21.55L121.159 20.62V23.29L116.179 24.16C115.279 24.32 114.619 24.61 114.199 25.03C113.779 25.43 113.569 25.95 113.569 26.59C113.569 27.21 113.799 27.72 114.259 28.12C114.739 28.5 115.349 28.69 116.089 28.69C117.009 28.69 117.809 28.49 118.489 28.09C119.189 27.69 119.729 27.16 120.109 26.5C120.489 25.82 120.679 25.07 120.679 24.25V20.08C120.679 19.28 120.379 18.63 119.779 18.13C119.199 17.61 118.419 17.35 117.439 17.35C116.539 17.35 115.749 17.59 115.069 18.07C114.409 18.53 113.919 19.13 113.599 19.87L110.779 18.46C111.079 17.66 111.569 16.96 112.249 16.36C112.929 15.74 113.719 15.26 114.619 14.92C115.539 14.58 116.509 14.41 117.529 14.41C118.809 14.41 119.939 14.65 120.919 15.13C121.919 15.61 122.689 16.28 123.229 17.14C123.789 17.98 124.069 18.96 124.069 20.08V31H120.829V28.06L121.519 28.15C121.139 28.81 120.649 29.38 120.049 29.86C119.469 30.34 118.799 30.71 118.039 30.97C117.299 31.23 116.469 31.36 115.549 31.36Z" fill="white"/>
<path d="M13 19.9267V23.7749C13 23.7749 11.2724 23.9328 10.234 24.2461C8.98796 24.6221 8.25441 24.8953 7.28369 25.6597C6.27171 26.4565 5.8795 27.0899 5.34752 28.1728C4.83495 29.2161 4.60993 31 4.60993 31H0V16H4.60993V22.5969C4.60993 22.5969 6.93476 21.0847 8.66667 20.555C10.2823 20.0608 13 19.9267 13 19.9267Z" fill="#D5CE26"/>
<path d="M6 14.8115V10.7068C6 10.7068 7.72762 10.5384 8.76596 10.2042C10.012 9.80313 10.7456 9.51166 11.7163 8.69634C12.7283 7.84636 13.1205 7.1708 13.6525 6.01571C14.165 4.90278 14.3901 3 14.3901 3H19V19H14.3901V11.9634C14.3901 11.9634 12.0652 13.5763 10.3333 14.1414C8.71772 14.6685 6 14.8115 6 14.8115Z" fill="#D5CE26"/>
</svg>
