<svg width="50" height="50" viewBox="0 0 50 50" fill="none" xmlns="http://www.w3.org/2000/svg">
<g clip-path="url(#clip0_165_140)">
<path d="M25 50C38.8071 50 50 38.8071 50 25C50 11.1929 38.8071 0 25 0C11.1929 0 0 11.1929 0 25C0 38.8071 11.1929 50 25 50Z" fill="#0D1E30"/>
<g filter="url(#filter0_d_165_140)">
<path d="M24.5704 9.46871C25.3188 9.08277 26.2329 9.97496 25.836 10.7109C25.6032 11.3109 24.7266 11.4703 24.2797 11.0125C23.8063 10.575 23.961 9.70621 24.5704 9.46715V9.46871ZM16.5157 10.3218C16.9704 10.1375 17.5469 10.5468 17.5 11.0359C17.5469 11.564 16.8907 11.9546 16.4266 11.7031C15.8125 11.4687 15.8828 10.4875 16.5157 10.3218ZM33.0125 11.7171C32.3016 11.6328 32.1891 10.5328 32.8719 10.3109C33.4032 10.0578 33.8907 10.5343 33.9688 11.0296C33.8563 11.4515 33.4969 11.839 33.0125 11.7171ZM18.3485 13.6937C19.1094 13.2203 20.1938 13.925 20.0766 14.7953C20.0375 15.6718 18.8532 16.1812 18.1844 15.5875C17.5375 15.1218 17.636 14.0531 18.3485 13.6937ZM29.9579 14.1968C30.2969 13.3375 31.6719 13.3093 32.0578 14.1468C32.4407 14.7984 31.9703 15.6062 31.2907 15.8281C30.3891 15.9937 29.5344 15.0343 29.9579 14.1968ZM23.6 15.7796C23.5922 15.039 24.2766 14.489 24.9907 14.4375C25.4657 14.5312 25.9813 14.7296 26.1844 15.2C26.5641 15.85 26.2266 16.7421 25.5438 17.0406C25.2313 17.2125 24.8594 17.1484 24.5188 17.1281C23.9985 16.8781 23.5594 16.3828 23.6 15.7796ZM11.6219 16.8578C12.3172 16.4359 13.2547 17.2015 12.9907 17.9453C12.8469 18.5875 11.9688 18.8484 11.4672 18.439C10.9313 18.0546 11.0157 17.1312 11.6235 16.8562L11.6219 16.8578ZM37.3438 16.8546C37.9328 16.4046 38.9063 16.9218 38.8344 17.6531C38.875 18.3203 38.0328 18.825 37.4485 18.4812C36.8047 18.1953 36.7375 17.2203 37.3438 16.8562V16.8546ZM26.9688 18.1843C27.9407 17.8406 29.0969 18.2515 29.65 19.1062C30.3813 20.1484 29.9938 21.7359 28.8579 22.3343C27.6828 23.0421 25.9657 22.4437 25.5297 21.15C25.0375 19.9937 25.7563 18.5468 26.9672 18.1843H26.9688ZM21.261 18.2984C22.3391 17.7984 23.7907 18.2171 24.311 19.3015C24.9235 20.3578 24.45 21.8281 23.3547 22.3734C22.2578 22.9875 20.7094 22.5218 20.1797 21.389C19.5844 20.2921 20.1125 18.8031 21.261 18.2984ZM15.5469 20.2187C15.6297 19.5359 16.2844 19.0906 16.9454 19.0437C17.29 19.0801 17.6122 19.2324 17.8591 19.4756C18.106 19.7189 18.2631 20.0387 18.3047 20.3828C18.2579 21.0859 17.7063 21.7703 16.95 21.7671C16.1172 21.8375 15.3875 21.0218 15.5469 20.2187ZM32.425 19.1937C33.2797 18.7046 34.4657 19.4156 34.4282 20.3812C34.486 21.4046 33.1735 22.125 32.3235 21.525C31.4391 21.025 31.5079 19.6187 32.425 19.1937ZM18.9407 22.7984C19.9375 22.5281 21.0813 22.9906 21.5704 23.8937C22.1063 24.8031 21.8875 26.0656 21.0547 26.7343C19.9844 27.7125 18.0141 27.3187 17.4454 25.9843C16.7907 24.7609 17.586 23.1203 18.9391 22.7968L18.9407 22.7984ZM29.7641 22.7937C30.7344 22.5203 31.875 22.8875 32.3969 23.7578C33.0875 24.7531 32.7579 26.239 31.7313 26.8796C30.6532 27.625 28.9875 27.2343 28.3938 26.0687C27.675 24.864 28.3985 23.1609 29.7641 22.7937ZM12.5141 23.9281C13.3766 23.6078 14.3329 24.5437 13.9829 25.3859C13.7704 26.1515 12.6719 26.4359 12.1047 25.8703C11.4407 25.339 11.686 24.1593 12.5141 23.9281ZM35.9032 25.15C35.887 24.806 36.0072 24.4696 36.2378 24.2138C36.4684 23.9581 36.7906 23.8037 37.1344 23.7843C37.725 23.8781 38.3 24.3468 38.2532 24.9796C38.3079 25.8156 37.2844 26.3828 36.5594 25.9906C36.2204 25.8203 36.0469 25.4781 35.9032 25.15ZM8.27191 24.3437C8.79066 24.1203 9.43285 24.5625 9.3141 25.1296C9.28598 25.7718 8.32191 26.0203 7.96879 25.4828C7.65629 25.1093 7.84379 24.5359 8.27191 24.3421V24.3437ZM41.0047 24.3296C41.3703 24.075 41.9579 24.2578 42.1016 24.6781C42.3469 25.1375 41.8969 25.7656 41.3719 25.689C40.6344 25.7546 40.3969 24.65 41.0047 24.3296ZM21.7594 27.4125C23.125 27.064 24.5938 28.1843 24.6032 29.5687C24.6907 30.9671 23.2438 32.2062 21.8469 31.8843C20.7657 31.7125 19.9172 30.6875 19.9532 29.614C19.95 28.5859 20.7375 27.6296 21.7594 27.4125ZM27.1688 27.4109C28.5547 27.0296 30.0672 28.1703 30.0454 29.5859C30.1188 30.9578 28.7172 32.1562 27.3485 31.8828C26.0594 31.7203 25.1094 30.3281 25.4688 29.0968C25.65 28.2781 26.3469 27.6125 27.1688 27.4093V27.4109ZM16.7375 28.2625C17.6969 28.1015 18.5969 29.1531 18.2079 30.05C17.9235 31.0062 16.511 31.264 15.886 30.4843C15.1547 29.7343 15.7016 28.3656 16.7375 28.2625ZM32.6032 28.3046C33.4594 27.9515 34.5094 28.6796 34.4438 29.5937C34.4782 30.5984 33.1813 31.2921 32.3454 30.7046C31.3969 30.1781 31.5703 28.6265 32.6032 28.3046ZM37.0375 32.6796C36.7032 32.0656 37.311 31.2515 38.0063 31.3656C38.35 31.3593 38.5922 31.6265 38.8125 31.8515C38.8579 32.2156 38.9344 32.65 38.6266 32.9296C38.2094 33.45 37.2641 33.3015 37.0375 32.6796ZM11.6188 31.5359C12.2672 31.1125 13.2 31.7453 13.0532 32.489C12.975 33.15 12.1313 33.5265 11.5766 33.1515C10.9797 32.8125 11.0016 31.8453 11.6188 31.5359ZM24.4203 32.9156C25.2688 32.5484 26.35 33.275 26.2688 34.1937C26.3313 35.2093 24.9953 35.9125 24.1657 35.3031C23.2438 34.7796 23.3985 33.239 24.4203 32.9156ZM18.4922 34.2765C19.2141 33.9031 20.1829 34.5484 20.1172 35.3453C20.1391 35.9984 19.4922 36.5546 18.836 36.4578C18.2938 36.4468 17.9407 35.9671 17.7657 35.5125C17.775 35.0171 17.9829 34.4656 18.4922 34.2781V34.2765ZM30.5016 34.289C31.2453 33.8359 32.3016 34.4859 32.2313 35.3359C32.25 36.2265 31.0563 36.7953 30.3641 36.2109C29.6954 35.7531 29.7766 34.6531 30.5016 34.289ZM32.5907 39.3671C32.2594 38.8765 32.6485 38.2843 33.1844 38.1718C33.6172 38.2578 34.075 38.5781 33.9829 39.0687C33.9204 39.7359 32.9297 39.939 32.5907 39.3687V39.3671ZM16.011 38.9406C16.1422 38.55 16.461 38.164 16.9282 38.2656C17.6079 38.3125 17.8094 39.3218 17.2141 39.6328C16.6797 39.9875 16.0578 39.5015 16.011 38.9406ZM24.011 39.389C24.1407 38.8109 24.8985 38.5312 25.3985 38.8375C25.7297 38.9781 25.8266 39.3406 25.911 39.65C25.8664 39.8106 25.8247 39.9721 25.786 40.1343C25.5813 40.3718 25.3172 40.6109 24.9766 40.6031C24.3438 40.6765 23.7719 39.9718 24.0094 39.389H24.011Z" fill="black"/>
</g>
<path d="M24.5704 9.46871C25.3188 9.08277 26.2329 9.97496 25.836 10.7109C25.6032 11.3109 24.7266 11.4703 24.2797 11.0125C23.8063 10.575 23.961 9.70621 24.5704 9.46715V9.46871ZM16.5157 10.3218C16.9704 10.1375 17.5469 10.5468 17.5 11.0359C17.5469 11.564 16.8907 11.9546 16.4266 11.7031C15.8125 11.4687 15.8828 10.4875 16.5157 10.3218ZM33.0125 11.7171C32.3016 11.6328 32.1891 10.5328 32.8719 10.3109C33.4032 10.0578 33.8907 10.5343 33.9688 11.0296C33.8563 11.4515 33.4969 11.839 33.0125 11.7171ZM18.3485 13.6937C19.1094 13.2203 20.1938 13.925 20.0766 14.7953C20.0375 15.6718 18.8532 16.1812 18.1844 15.5875C17.5375 15.1218 17.636 14.0531 18.3485 13.6937ZM29.9579 14.1968C30.2969 13.3375 31.6719 13.3093 32.0578 14.1468C32.4407 14.7984 31.9703 15.6062 31.2907 15.8281C30.3891 15.9937 29.5344 15.0343 29.9579 14.1968ZM23.6 15.7796C23.5922 15.039 24.2766 14.489 24.9907 14.4375C25.4657 14.5312 25.9813 14.7296 26.1844 15.2C26.5641 15.85 26.2266 16.7421 25.5438 17.0406C25.2313 17.2125 24.8594 17.1484 24.5188 17.1281C23.9985 16.8781 23.5594 16.3828 23.6 15.7796ZM11.6219 16.8578C12.3172 16.4359 13.2547 17.2015 12.9907 17.9453C12.8469 18.5875 11.9688 18.8484 11.4672 18.439C10.9313 18.0546 11.0157 17.1312 11.6235 16.8562L11.6219 16.8578ZM37.3438 16.8546C37.9328 16.4046 38.9063 16.9218 38.8344 17.6531C38.875 18.3203 38.0328 18.825 37.4485 18.4812C36.8047 18.1953 36.7375 17.2203 37.3438 16.8562V16.8546ZM26.9688 18.1843C27.9407 17.8406 29.0969 18.2515 29.65 19.1062C30.3813 20.1484 29.9938 21.7359 28.8579 22.3343C27.6828 23.0421 25.9657 22.4437 25.5297 21.15C25.0375 19.9937 25.7563 18.5468 26.9672 18.1843H26.9688ZM21.261 18.2984C22.3391 17.7984 23.7907 18.2171 24.311 19.3015C24.9235 20.3578 24.45 21.8281 23.3547 22.3734C22.2578 22.9875 20.7094 22.5218 20.1797 21.389C19.5844 20.2921 20.1125 18.8031 21.261 18.2984ZM15.5469 20.2187C15.6297 19.5359 16.2844 19.0906 16.9454 19.0437C17.29 19.0801 17.6122 19.2324 17.8591 19.4756C18.106 19.7189 18.2631 20.0387 18.3047 20.3828C18.2579 21.0859 17.7063 21.7703 16.95 21.7671C16.1172 21.8375 15.3875 21.0218 15.5469 20.2187ZM32.425 19.1937C33.2797 18.7046 34.4657 19.4156 34.4282 20.3812C34.486 21.4046 33.1735 22.125 32.3235 21.525C31.4391 21.025 31.5079 19.6187 32.425 19.1937ZM18.9407 22.7984C19.9375 22.5281 21.0813 22.9906 21.5704 23.8937C22.1063 24.8031 21.8875 26.0656 21.0547 26.7343C19.9844 27.7125 18.0141 27.3187 17.4454 25.9843C16.7907 24.7609 17.586 23.1203 18.9391 22.7968L18.9407 22.7984ZM29.7641 22.7937C30.7344 22.5203 31.875 22.8875 32.3969 23.7578C33.0875 24.7531 32.7579 26.239 31.7313 26.8796C30.6532 27.625 28.9875 27.2343 28.3938 26.0687C27.675 24.864 28.3985 23.1609 29.7641 22.7937ZM12.5141 23.9281C13.3766 23.6078 14.3329 24.5437 13.9829 25.3859C13.7704 26.1515 12.6719 26.4359 12.1047 25.8703C11.4407 25.339 11.686 24.1593 12.5141 23.9281ZM35.9032 25.15C35.887 24.806 36.0072 24.4696 36.2378 24.2138C36.4684 23.9581 36.7906 23.8037 37.1344 23.7843C37.725 23.8781 38.3 24.3468 38.2532 24.9796C38.3079 25.8156 37.2844 26.3828 36.5594 25.9906C36.2204 25.8203 36.0469 25.4781 35.9032 25.15ZM8.27191 24.3437C8.79066 24.1203 9.43285 24.5625 9.3141 25.1296C9.28598 25.7718 8.32191 26.0203 7.96879 25.4828C7.65629 25.1093 7.84379 24.5359 8.27191 24.3421V24.3437ZM41.0047 24.3296C41.3703 24.075 41.9579 24.2578 42.1016 24.6781C42.3469 25.1375 41.8969 25.7656 41.3719 25.689C40.6344 25.7546 40.3969 24.65 41.0047 24.3296ZM21.7594 27.4125C23.125 27.064 24.5938 28.1843 24.6032 29.5687C24.6907 30.9671 23.2438 32.2062 21.8469 31.8843C20.7657 31.7125 19.9172 30.6875 19.9532 29.614C19.95 28.5859 20.7375 27.6296 21.7594 27.4125ZM27.1688 27.4109C28.5547 27.0296 30.0672 28.1703 30.0454 29.5859C30.1188 30.9578 28.7172 32.1562 27.3485 31.8828C26.0594 31.7203 25.1094 30.3281 25.4688 29.0968C25.65 28.2781 26.3469 27.6125 27.1688 27.4093V27.4109ZM16.7375 28.2625C17.6969 28.1015 18.5969 29.1531 18.2079 30.05C17.9235 31.0062 16.511 31.264 15.886 30.4843C15.1547 29.7343 15.7016 28.3656 16.7375 28.2625ZM32.6032 28.3046C33.4594 27.9515 34.5094 28.6796 34.4438 29.5937C34.4782 30.5984 33.1813 31.2921 32.3454 30.7046C31.3969 30.1781 31.5703 28.6265 32.6032 28.3046ZM37.0375 32.6796C36.7032 32.0656 37.311 31.2515 38.0063 31.3656C38.35 31.3593 38.5922 31.6265 38.8125 31.8515C38.8579 32.2156 38.9344 32.65 38.6266 32.9296C38.2094 33.45 37.2641 33.3015 37.0375 32.6796ZM11.6188 31.5359C12.2672 31.1125 13.2 31.7453 13.0532 32.489C12.975 33.15 12.1313 33.5265 11.5766 33.1515C10.9797 32.8125 11.0016 31.8453 11.6188 31.5359ZM24.4203 32.9156C25.2688 32.5484 26.35 33.275 26.2688 34.1937C26.3313 35.2093 24.9953 35.9125 24.1657 35.3031C23.2438 34.7796 23.3985 33.239 24.4203 32.9156ZM18.4922 34.2765C19.2141 33.9031 20.1829 34.5484 20.1172 35.3453C20.1391 35.9984 19.4922 36.5546 18.836 36.4578C18.2938 36.4468 17.9407 35.9671 17.7657 35.5125C17.775 35.0171 17.9829 34.4656 18.4922 34.2781V34.2765ZM30.5016 34.289C31.2453 33.8359 32.3016 34.4859 32.2313 35.3359C32.25 36.2265 31.0563 36.7953 30.3641 36.2109C29.6954 35.7531 29.7766 34.6531 30.5016 34.289ZM32.5907 39.3671C32.2594 38.8765 32.6485 38.2843 33.1844 38.1718C33.6172 38.2578 34.075 38.5781 33.9829 39.0687C33.9204 39.7359 32.9297 39.939 32.5907 39.3687V39.3671ZM16.011 38.9406C16.1422 38.55 16.461 38.164 16.9282 38.2656C17.6079 38.3125 17.8094 39.3218 17.2141 39.6328C16.6797 39.9875 16.0578 39.5015 16.011 38.9406ZM24.011 39.389C24.1407 38.8109 24.8985 38.5312 25.3985 38.8375C25.7297 38.9781 25.8266 39.3406 25.911 39.65C25.8664 39.8106 25.8247 39.9721 25.786 40.1343C25.5813 40.3718 25.3172 40.6109 24.9766 40.6031C24.3438 40.6765 23.7719 39.9718 24.0094 39.389H24.011Z" fill="white"/>
</g>
<defs>
<filter id="filter0_d_165_140" x="-17.1868" y="-3.12439" width="84.3572" height="81.2328" filterUnits="userSpaceOnUse" color-interpolation-filters="sRGB">
<feFlood flood-opacity="0" result="BackgroundImageFix"/>
<feColorMatrix in="SourceAlpha" type="matrix" values="0 0 0 0 0 0 0 0 0 0 0 0 0 0 0 0 0 0 127 0" result="hardAlpha"/>
<feOffset dy="12.5"/>
<feGaussianBlur stdDeviation="12.5"/>
<feColorMatrix type="matrix" values="0 0 0 0 0 0 0 0 0 0 0 0 0 0 0 0 0 0 0.204257 0"/>
<feBlend mode="normal" in2="BackgroundImageFix" result="effect1_dropShadow_165_140"/>
<feBlend mode="normal" in="SourceGraphic" in2="effect1_dropShadow_165_140" result="shape"/>
</filter>
<clipPath id="clip0_165_140">
<rect width="50" height="50" fill="white"/>
</clipPath>
</defs>
</svg>
