<svg width="35" height="35" viewBox="0 0 35 35" fill="none" xmlns="http://www.w3.org/2000/svg">
<g clip-path="url(#clip0_161_252)">
<path d="M17.5 35C27.165 35 35 27.165 35 17.5C35 7.83502 27.165 0 17.5 0C7.83502 0 0 7.83502 0 17.5C0 27.165 7.83502 35 17.5 35Z" fill="#F7931A"/>
<path d="M25.363 15.3344C25.7064 13.0419 23.9597 11.8092 21.5732 10.9867L22.3475 7.88047L20.4575 7.41016L19.7028 10.4344C19.2063 10.3097 18.6966 10.1937 18.188 10.0778L18.9482 7.03391L17.0582 6.5625L16.2838 9.66766C15.8725 9.57359 15.4678 9.48172 15.0763 9.38328L15.0785 9.37344L12.471 8.72266L11.9678 10.7417C11.9678 10.7417 13.3711 11.0633 13.3416 11.083C14.1072 11.2744 14.245 11.7808 14.2221 12.1833L13.3405 15.7216C13.393 15.7347 13.4608 15.7544 13.5374 15.7839L13.3372 15.7347L12.1013 20.6916C12.0072 20.9234 11.7699 21.2723 11.2339 21.14C11.2536 21.1673 9.86019 20.7977 9.86019 20.7977L8.92175 22.9611L11.3827 23.5747C11.8399 23.6895 12.2883 23.8098 12.7291 23.9225L11.9471 27.0637L13.836 27.5341L14.6103 24.4278C15.1266 24.5667 15.6275 24.6958 16.1175 24.8183L15.3453 27.9114L17.2353 28.3817L18.0174 25.247C21.2418 25.8573 23.6655 25.6112 24.686 22.6953C25.5085 20.3481 24.6455 18.993 22.9491 18.1103C24.185 17.8259 25.1147 17.0133 25.363 15.3344ZM21.0427 21.3916C20.4597 23.7398 16.5058 22.47 15.2239 22.1517L16.263 17.99C17.5449 18.3105 21.6541 18.9438 21.0427 21.3916ZM21.6278 15.3005C21.0952 17.4366 17.8052 16.3505 16.7388 16.0847L17.6794 12.3112C18.7458 12.577 22.1835 13.0725 21.6278 15.3005Z" fill="white"/>
</g>
<defs>
<clipPath id="clip0_161_252">
<rect width="35" height="35" fill="white"/>
</clipPath>
</defs>
</svg>
