<svg width="50" height="50" viewBox="0 0 50 50" fill="none" xmlns="http://www.w3.org/2000/svg">
<path d="M25 50C38.8071 50 50 38.8071 50 25C50 11.1929 38.8071 0 25 0C11.1929 0 0 11.1929 0 25C0 38.8071 11.1929 50 25 50Z" fill="#8DC351"/>
<path d="M33.136 16.4594C31.9235 13.3781 28.8829 13.1 25.3422 13.7875L24.0813 9.39221L21.4063 10.1594L22.6344 14.4406C21.9313 14.6406 21.2157 14.8625 20.5047 15.0813L19.2704 10.7719L16.5969 11.5375L17.8547 15.9328C17.2797 16.111 16.7141 16.286 16.1594 16.4453L16.1547 16.4297L12.4641 17.4875L13.2844 20.3469C13.2844 20.3469 15.25 19.7406 15.2266 19.7875C16.311 19.4766 16.8438 20.0047 17.1016 20.5188L18.5391 25.525C18.6125 25.5047 18.711 25.4797 18.8266 25.4625L18.5438 25.5438L20.5547 32.5594C20.6047 32.9141 20.561 33.5156 19.8047 33.7344C19.8469 33.7547 17.8579 34.2906 17.8579 34.2906L18.2438 37.6391L21.725 36.6391C22.3735 36.4563 23.0141 36.2844 23.6407 36.1078L24.9172 40.5532L27.5891 39.7875L26.3282 35.3891C27.0449 35.1989 27.7595 35.001 28.4719 34.7953L29.725 39.175L32.4016 38.4078L31.1297 33.9703C35.5532 32.4219 38.3766 30.386 37.5563 26.0485C36.8969 22.5578 34.8625 21.4985 32.1329 21.6172C33.4579 20.3828 34.0282 18.7125 33.136 16.4594ZM32.1204 27.0375C33.0735 30.361 27.2766 31.6141 25.4641 32.136L23.775 26.2453C25.5875 25.725 31.125 23.5735 32.1188 27.0391L32.1204 27.0375ZM28.4922 19.0844C29.3579 22.1078 24.5125 23.1156 23.0016 23.5485L21.4704 18.2063C22.9797 17.7735 27.5875 15.9328 28.4922 19.086V19.0844Z" fill="white"/>
</svg>
