<svg width="50" height="50" viewBox="0 0 50 50" fill="none" xmlns="http://www.w3.org/2000/svg">
<g clip-path="url(#clip0_165_248)">
<path d="M25 50C38.8071 50 50 38.8071 50 25C50 11.1929 38.8071 0 25 0C11.1929 0 0 11.1929 0 25C0 38.8071 11.1929 50 25 50Z" fill="#E6007A"/>
<path d="M25.4249 10.3516C19.6327 10.3516 14.8999 15.0578 14.8999 20.8766C14.8999 22.0469 15.0937 23.1891 15.4562 24.3016C15.5845 24.6689 15.8519 24.9711 16.2008 25.1432C16.5497 25.3153 16.9522 25.3436 17.3218 25.2219C17.6888 25.0932 17.9906 24.8257 18.1625 24.4768C18.3343 24.128 18.3623 23.7256 18.2405 23.3562C17.935 22.4889 17.7936 21.5722 17.8233 20.6531C17.9343 16.7281 21.1093 13.4969 25.0358 13.3031C26.0644 13.2491 27.0931 13.4048 28.0596 13.7609C29.026 14.117 29.9099 14.6659 30.6575 15.3744C31.4051 16.0828 32.0008 16.9359 32.4083 17.8818C32.8159 18.8277 33.0267 19.8466 33.028 20.8766C33.0257 22.8135 32.2836 24.6765 30.9534 26.0845C29.6233 27.4925 27.8055 28.3392 25.8718 28.4516C25.8718 28.4516 24.3952 28.5344 23.6718 28.6469C23.3093 28.7016 23.0312 28.7578 22.8358 28.7859C22.7515 28.8141 22.6687 28.7297 22.6952 28.6453L22.9468 27.4219L24.3108 21.1281C24.3903 20.7518 24.3181 20.3593 24.1097 20.036C23.9014 19.7127 23.5739 19.4847 23.1983 19.4016C22.8218 19.3221 22.4291 19.3946 22.1058 19.6032C21.7824 19.8119 21.5545 20.1398 21.4718 20.5156C21.4718 20.5156 18.1858 35.8312 18.1577 35.9984C18.0783 36.375 18.1507 36.7677 18.3594 37.091C18.568 37.4144 18.896 37.6422 19.2718 37.725C19.6483 37.8045 20.041 37.732 20.3644 37.5233C20.6877 37.3147 20.9156 36.9868 20.9983 36.6109C21.0249 36.4438 21.4718 34.4109 21.4718 34.4109C21.6299 33.6656 22.0144 32.9874 22.5726 32.4689C23.1309 31.9503 23.8356 31.6169 24.5905 31.5141C25.1367 31.4542 25.6843 31.4079 26.2327 31.375C28.8764 31.169 31.3453 29.9737 33.1467 28.0278C34.9481 26.0819 35.9497 23.5283 35.9515 20.8766C35.9515 15.0578 31.2171 10.3516 25.4249 10.3516ZM26.1765 34.5781C25.9497 34.5292 25.7156 34.5258 25.4875 34.5681C25.2594 34.6103 25.042 34.6974 24.8479 34.8243C24.6537 34.9511 24.4867 35.1153 24.3564 35.3072C24.2261 35.4991 24.1352 35.7149 24.089 35.9422C23.8937 36.8891 24.4796 37.8359 25.453 38.0312C25.68 38.0804 25.9144 38.0839 26.1427 38.0417C26.3711 37.9994 26.5887 37.9122 26.7831 37.7852C26.9774 37.6581 27.1446 37.4937 27.2749 37.3016C27.4052 37.1094 27.496 36.8932 27.5421 36.6656C27.7358 35.6922 27.1515 34.7719 26.1765 34.5781Z" fill="white"/>
</g>
<defs>
<clipPath id="clip0_165_248">
<rect width="50" height="50" fill="white"/>
</clipPath>
</defs>
</svg>
