<svg width="50" height="50" viewBox="0 0 50 50" fill="none" xmlns="http://www.w3.org/2000/svg">
<g clip-path="url(#clip0_165_263)">
<path d="M25 50C38.8071 50 50 38.8071 50 25C50 11.1929 38.8071 0 25 0C11.1929 0 0 11.1929 0 25C0 38.8071 11.1929 50 25 50Z" fill="black"/>
<path d="M18.2589 19.2024L24.9954 40.3537L15 34.0914M18.2589 19.2024L15 34.0914M18.2589 19.2024L24.9954 10V16.4546L15 34.0914M15 34.0914H35M35 34.0914L25.0046 16.4546V10L31.7398 19.2024M35 34.0914L31.7398 19.2024M35 34.0914L25.0046 40.3537L31.7398 19.2024" stroke="white" stroke-linecap="round" stroke-linejoin="round"/>
</g>
<defs>
<clipPath id="clip0_165_263">
<rect width="50" height="50" fill="white"/>
</clipPath>
</defs>
</svg>
