<svg width="50" height="50" viewBox="0 0 50 50" fill="none" xmlns="http://www.w3.org/2000/svg">
<g clip-path="url(#clip0_165_171)">
<path d="M25 50C38.8071 50 50 38.8071 50 25C50 11.1929 38.8071 0 25 0C11.1929 0 0 11.1929 0 25C0 38.8071 11.1929 50 25 50Z" fill="#328332"/>
<path d="M24.9828 25.8641L14.4812 24.9625L24.9812 19.0219V25.8641H24.9828ZM24.9828 32.8328V43.6766C21.3313 37.9922 17.3062 31.7359 14.0625 26.6719C17.8906 28.8281 21.8875 31.0812 24.9828 32.8328ZM24.9828 17.1016L14.0625 23.1953L24.9828 6.25V17.1016Z" fill="white"/>
<path d="M35.4845 24.9625L24.9829 25.8641V19.0219L35.4845 24.9625ZM24.9829 32.8344C28.0767 31.0844 32.072 28.8281 35.9017 26.6719C32.6579 31.7375 28.6329 37.9937 24.9829 43.675V32.8344ZM24.9829 17.1016V6.25L35.9017 23.1953L24.9829 17.1016Z" fill="white" fill-opacity="0.601"/>
<path opacity="0.2" fill-rule="evenodd" clip-rule="evenodd" d="M24.9829 25.8641L35.4829 24.9625L24.9829 30.861V25.8641Z" fill="white"/>
<path opacity="0.603" fill-rule="evenodd" clip-rule="evenodd" d="M24.9813 25.8641L14.4797 24.9625L24.9813 30.861V25.8641Z" fill="white"/>
</g>
<defs>
<clipPath id="clip0_165_171">
<rect width="50" height="50" fill="white"/>
</clipPath>
</defs>
</svg>
