<svg width="50" height="50" viewBox="0 0 50 50" fill="none" xmlns="http://www.w3.org/2000/svg">
<g clip-path="url(#clip0_165_271)">
<path d="M25 50C38.8071 50 50 38.8071 50 25C50 11.1929 38.8071 0 25 0C11.1929 0 0 11.1929 0 25C0 38.8071 11.1929 50 25 50Z" fill="#5942CC"/>
<path d="M32.3547 30.5359C32.6476 30.8289 32.8122 31.2263 32.8122 31.6406C32.8122 32.0549 32.6476 32.4523 32.3547 32.7453L26.1047 38.9953C25.9606 39.1445 25.7881 39.2636 25.5975 39.3455C25.4069 39.4274 25.2018 39.4705 24.9944 39.4723C24.7869 39.4741 24.5812 39.4345 24.3891 39.356C24.1971 39.2774 24.0227 39.1614 23.8759 39.0147C23.7292 38.868 23.6132 38.6935 23.5347 38.5015C23.4561 38.3095 23.4166 38.1037 23.4184 37.8962C23.4202 37.6888 23.4633 37.4837 23.5452 37.2931C23.627 37.1025 23.7461 36.9301 23.8953 36.7859L30.1453 30.5359C30.4383 30.243 30.8357 30.0785 31.25 30.0785C31.6643 30.0785 32.0617 30.243 32.3547 30.5359ZM23.4375 11.3281C24.6686 11.3281 25.8877 11.5706 27.0252 12.0418C28.1626 12.5129 29.1961 13.2034 30.0666 14.074C30.9372 14.9445 31.6277 15.978 32.0989 17.1155C32.57 18.2529 32.8125 19.472 32.8125 20.7031C32.8125 21.9343 32.57 23.1534 32.0989 24.2908C31.6277 25.4282 30.9372 26.4617 30.0666 27.3323C29.1961 28.2028 28.1626 28.8934 27.0252 29.3645C25.8877 29.8356 24.6686 30.0781 23.4375 30.0781C20.9511 30.0781 18.5665 29.0904 16.8084 27.3323C15.0502 25.5741 14.0625 23.1895 14.0625 20.7031C14.0625 18.2167 15.0502 15.8322 16.8084 14.074C18.5665 12.3158 20.9511 11.3281 23.4375 11.3281ZM23.4375 14.4531C21.7799 14.4531 20.1902 15.1116 19.0181 16.2837C17.846 17.4558 17.1875 19.0455 17.1875 20.7031C17.1875 22.3607 17.846 23.9504 19.0181 25.1225C20.1902 26.2946 21.7799 26.9531 23.4375 26.9531C25.0951 26.9531 26.6848 26.2946 27.8569 25.1225C29.029 23.9504 29.6875 22.3607 29.6875 20.7031C29.6875 19.0455 29.029 17.4558 27.8569 16.2837C26.6848 15.1116 25.0951 14.4531 23.4375 14.4531ZM34.375 11.3281C34.7894 11.3281 35.1868 11.4927 35.4799 11.7858C35.7729 12.0788 35.9375 12.4762 35.9375 12.8906C35.9375 13.305 35.7729 13.7025 35.4799 13.9955C35.1868 14.2885 34.7894 14.4531 34.375 14.4531C33.9606 14.4531 33.5632 14.2885 33.2701 13.9955C32.9771 13.7025 32.8125 13.305 32.8125 12.8906C32.8125 12.4762 32.9771 12.0788 33.2701 11.7858C33.5632 11.4927 33.9606 11.3281 34.375 11.3281Z" fill="black"/>
</g>
<defs>
<clipPath id="clip0_165_271">
<rect width="50" height="50" fill="white"/>
</clipPath>
</defs>
</svg>
