<svg width="50" height="50" viewBox="0 0 50 50" fill="none" xmlns="http://www.w3.org/2000/svg">
<g clip-path="url(#clip0_165_267)">
<path d="M25 50C38.8071 50 50 38.8071 50 25C50 11.1929 38.8071 0 25 0C11.1929 0 0 11.1929 0 25C0 38.8071 11.1929 50 25 50Z" fill="#04ADEF"/>
<path d="M16.7969 11.0422L14.0625 13.8547V25L16.7969 27.8125H27.6328V33.4375H22.2656V30.625H14.0625V36.25L16.7969 39.0625H33.1016L35.8359 36.25V25L33.1016 22.1875H22.2656V16.5625H27.7344V19.375H35.9375V13.75L33.2031 10.9375H16.7969V11.0422Z" fill="white"/>
</g>
<defs>
<clipPath id="clip0_165_267">
<rect width="50" height="50" fill="white"/>
</clipPath>
</defs>
</svg>
