<svg width="50" height="50" viewBox="0 0 50 50" fill="none" xmlns="http://www.w3.org/2000/svg">
<g clip-path="url(#clip0_176_91)">
<path d="M25 50C38.8071 50 50 38.8071 50 25C50 11.1929 38.8071 0 25 0C11.1929 0 0 11.1929 0 25C0 38.8071 11.1929 50 25 50Z" fill="#26A17B"/>
<path fill-rule="evenodd" clip-rule="evenodd" d="M28.0031 27.1609V27.1578C27.8313 27.1703 26.9453 27.2234 24.9687 27.2234C23.3906 27.2234 22.2797 27.1765 21.8891 27.1578V27.1625C15.8141 26.8953 11.2797 25.8375 11.2797 24.5719C11.2797 23.3078 15.8141 22.25 21.8891 21.9781V26.1093C22.2859 26.1375 23.4234 26.2047 24.9953 26.2047C26.8812 26.2047 27.8266 26.1265 28.0031 26.1109V21.9812C34.0656 22.2515 38.5891 23.3094 38.5891 24.5719C38.5891 25.8375 34.0656 26.8922 28.0031 27.1609ZM28.0031 21.5515V17.8547H36.4625V12.2172H13.4297V17.8547H21.8891V21.55C15.0141 21.8656 9.84375 23.2281 9.84375 24.8594C9.84375 26.4906 15.0141 27.8515 21.8891 28.1687V40.0156H28.0031V28.1656C34.8672 27.85 40.025 26.489 40.025 24.8594C40.025 23.2297 34.8672 21.8687 28.0031 21.5515Z" fill="white"/>
</g>
<defs>
<clipPath id="clip0_176_91">
<rect width="50" height="50" fill="white"/>
</clipPath>
</defs>
</svg>
