<svg width="30" height="30" viewBox="0 0 30 30" fill="none" xmlns="http://www.w3.org/2000/svg">
<path fill-rule="evenodd" clip-rule="evenodd" d="M14.3616 20.361C14.3612 20.3613 14.3607 20.3615 14.3603 20.3615C14.3598 20.3615 14.3593 20.3613 14.359 20.361L10.169 16.3694C9.5638 15.7929 9.56386 14.8273 10.1691 14.2509C10.7341 13.7128 11.6219 13.7128 12.1869 14.2509L12.7695 14.8058C13.6607 15.6546 15.0613 15.6546 15.9525 14.8058L19.7167 11.2208C20.2816 10.6828 21.1694 10.6828 21.7343 11.2208C22.3396 11.7973 22.3396 12.7628 21.7343 13.3393L14.3616 20.361ZM0 24.2858C0 27.0472 2.23858 29.2858 5 29.2858H25C27.7614 29.2858 30 27.0472 30 24.2858V5.71436C30 2.95294 27.7614 0.714355 25 0.714355H5C2.23858 0.714355 0 2.95293 0 5.71436V24.2858Z" fill="#D5CE26"/>
</svg>
