<svg width="20" height="20" viewBox="0 0 20 20" fill="none" xmlns="http://www.w3.org/2000/svg">
<path d="M3.74622 6.20068C2.956 6.76484 2.31533 7.36808 1.82439 7.89977C0.714462 9.10178 0.714463 10.8981 1.82439 12.1001C3.26389 13.6591 5.99063 15.8333 9.99997 15.8333C11.0798 15.8333 12.0666 15.6756 12.9602 15.4147L11.5746 14.029C11.078 14.1174 10.5531 14.1666 9.99997 14.1666C6.63905 14.1666 4.32357 12.3499 3.04887 10.9694C2.52852 10.406 2.52852 9.59395 3.04887 9.03045C3.53125 8.50803 4.16269 7.92315 4.94342 7.39789L3.74622 6.20068Z" fill="#6A6A6A"/>
<path d="M7.11078 9.56543C7.08959 9.70726 7.07861 9.85235 7.07861 10.0001C7.07861 11.6109 8.38446 12.9168 9.99529 12.9168C10.143 12.9168 10.2881 12.9058 10.43 12.8846L7.11078 9.56543Z" fill="#6A6A6A"/>
<path d="M12.8885 10.3725L9.6228 7.10683C9.7448 7.09127 9.86914 7.08325 9.99539 7.08325C11.6062 7.08325 12.9121 8.38909 12.9121 9.99992C12.9121 10.1262 12.9041 10.2505 12.8885 10.3725Z" fill="#6A6A6A"/>
<path d="M15.0932 12.5774C15.857 12.0586 16.4763 11.4838 16.9511 10.9696C17.4715 10.4061 17.4715 9.59408 16.9511 9.03058C15.6765 7.6501 13.361 5.83341 10 5.83341C9.46621 5.83341 8.95879 5.87924 8.47771 5.96187L7.0874 4.5716C7.96846 4.31891 8.93938 4.16675 10 4.16675C14.0094 4.16675 16.7361 6.34096 18.1756 7.8999C19.2855 9.10191 19.2855 10.8982 18.1756 12.1002C17.6921 12.6239 17.0634 13.217 16.2895 13.7737L15.0932 12.5774Z" fill="#6A6A6A"/>
<path d="M1.67328 2.85179C1.34784 2.52636 1.34784 1.99871 1.67328 1.67328C1.99871 1.34784 2.52636 1.34784 2.85179 1.67328L18.3337 17.1552C18.6592 17.4806 18.6592 18.0083 18.3337 18.3337C18.0083 18.6591 17.4806 18.6591 17.1552 18.3337L1.67328 2.85179Z" fill="#6A6A6A"/>
</svg>
