<svg width="20" height="20" viewBox="0 0 20 20" fill="none" xmlns="http://www.w3.org/2000/svg">
<path fill-rule="evenodd" clip-rule="evenodd" d="M9.99529 12.9166C11.6061 12.9166 12.912 11.6108 12.912 9.99992C12.912 8.38909 11.6061 7.08325 9.99529 7.08325C8.38446 7.08325 7.07861 8.38909 7.07861 9.99992C7.07861 11.6108 8.38446 12.9166 9.99529 12.9166ZM9.99529 11.2453C9.30754 11.2453 8.74996 10.6877 8.74996 9.99992C8.74996 9.31217 9.30754 8.75459 9.99529 8.75459C10.683 8.75459 11.2406 9.31217 11.2406 9.99992C11.2406 10.6877 10.683 11.2453 9.99529 11.2453Z" fill="#6A6A6A"/>
<path fill-rule="evenodd" clip-rule="evenodd" d="M10.0002 4.16675C5.99087 4.16675 3.26413 6.34096 1.82463 7.8999C0.714706 9.10191 0.714707 10.8982 1.82463 12.1002C3.26413 13.6592 5.99087 15.8334 10.0002 15.8334C14.0095 15.8334 16.7363 13.6592 18.1758 12.1002C19.2857 10.8982 19.2857 9.10191 18.1758 7.8999C16.7363 6.34096 14.0095 4.16675 10.0002 4.16675ZM3.04911 9.03058C4.32381 7.6501 6.6393 5.83341 10.0002 5.83341C13.3611 5.83341 15.6766 7.6501 16.9513 9.03058C17.4716 9.59408 17.4716 10.4061 16.9513 10.9696C15.6766 12.3501 13.3611 14.1667 10.0002 14.1667C6.6393 14.1667 4.32381 12.3501 3.04911 10.9696C2.52876 10.4061 2.52876 9.59408 3.04911 9.03058Z" fill="#6A6A6A"/>
</svg>
