<svg width="55" height="55" viewBox="0 0 55 55" fill="none" xmlns="http://www.w3.org/2000/svg">
<ellipse cx="27" cy="27.5" rx="22" ry="21.5" fill="#5F5B00"/>
<path d="M31.933 33.5425C32.8068 31.9688 32.7966 30.1331 32.0337 28.6229C33.1652 28.3361 34.1363 27.6171 34.7431 26.5242C35.8595 24.5134 35.2081 21.9785 33.2895 20.7989L34.1875 19.1815C34.4788 18.6569 34.2601 18.0208 33.7792 17.7538C33.2983 17.4868 32.6185 17.6812 32.3515 18.1621L31.4535 19.7795L30.8415 19.4397L31.7395 17.8223C32.0308 17.2977 31.8121 16.6616 31.3312 16.3946C30.8503 16.1276 30.1705 16.3221 29.9035 16.8029L29.0055 18.4204L26.2515 16.8913C25.7707 16.6243 25.1151 16.775 24.8238 17.2996C24.5326 17.8242 24.7513 18.4603 25.2321 18.7273L26.1064 19.2127L19.8446 30.491L18.9703 30.0056C18.4894 29.7386 17.8339 29.8893 17.5426 30.4139C17.2514 30.9385 17.4701 31.5746 17.9509 31.8416L20.6175 33.3221L19.7195 34.9395C19.4282 35.4641 19.6469 36.1002 20.1278 36.3672C20.6087 36.6342 21.2885 36.4397 21.5555 35.9589L22.4535 34.3414L23.0655 34.6812L22.1675 36.2987C21.8762 36.8232 22.0949 37.4594 22.5758 37.7263C23.0567 37.9933 23.7365 37.7989 24.0035 37.318L24.9015 35.7006C27.5097 36.9772 30.5496 36.0342 31.933 33.5425ZM32.0078 22.4893C33.057 23.0718 33.4459 24.4315 32.8634 25.4806C32.2809 26.5297 30.9212 26.9186 29.872 26.3361L25.8503 24.1032L27.9861 20.2564L32.0078 22.4893ZM25.746 33.7675L21.7243 31.5346L24.8067 25.9829L28.8721 28.2401C30.4021 29.0896 30.9465 30.9931 30.097 32.5231C29.2476 34.0531 27.276 34.617 25.746 33.7675Z" fill="#F8F4A1"/>
</svg>
