<svg width="24" height="24" viewBox="0 0 24 24" fill="none" xmlns="http://www.w3.org/2000/svg">
<path fill-rule="evenodd" clip-rule="evenodd" d="M12 23.25C18.2132 23.25 23.25 18.2132 23.25 12C23.25 9.70825 22.5647 7.57655 21.3879 5.79864L12.4437 15.7366C11.578 16.6986 10.121 16.8407 9.08555 16.0641L5 13C4.44771 12.5858 4.33579 11.8022 4.75 11.25C5.16421 10.6977 5.94771 10.5857 6.5 11L10.5855 14.0641L19.7675 3.86194C17.7483 1.93396 15.0124 0.75 12 0.75C5.7868 0.75 0.75 5.7868 0.75 12C0.75 18.2132 5.7868 23.25 12 23.25Z" fill="#D5CE26"/>
</svg>
